<?xml version="1.0" standalone="no"?>
<!DOCTYPE svg PUBLIC "-//W3C//DTD SVG 20010904//EN"
 "http://www.w3.org/TR/2001/REC-SVG-20010904/DTD/svg10.dtd">
<svg version="1.0" xmlns="http://www.w3.org/2000/svg"
 width="1286.000000pt" height="1160.000000pt" viewBox="0 0 1286.000000 1160.000000"
 preserveAspectRatio="xMidYMid meet">

<g transform="translate(0.000000,1160.000000) scale(0.100000,-0.100000)"
fill="#000000" stroke="none">
<path d="M6058 11354 c-5 -4 -8 -119 -8 -256 l0 -248 143 0 c161 0 195 10 234
69 41 61 20 168 -36 186 -21 6 -29 25 -11 25 18 0 50 64 50 98 0 18 -7 46 -15
62 -26 50 -64 62 -215 68 -74 2 -138 1 -142 -4z m262 -74 c32 -17 43 -47 30
-85 -14 -43 -48 -55 -151 -55 l-79 0 0 75 0 75 91 0 c50 0 99 -5 109 -10z m37
-234 c29 -34 26 -77 -8 -111 -17 -17 -33 -20 -122 -20 l-102 0 -3 83 -3 84
106 -4 c104 -3 108 -4 132 -32z"/>
<path d="M2370 10425 c0 -8 -7 -15 -15 -15 -13 0 -15 -358 -15 -3163 l0 -3163
-834 -272 c-459 -150 -839 -272 -844 -272 -6 0 -18 23 -27 51 l-17 51 -109
-108 c-60 -59 -107 -110 -104 -112 2 -2 69 -14 149 -26 160 -24 156 -26 132
42 l-15 41 77 25 c156 51 1548 504 1570 510 l23 8 -1 -1099 c0 -604 0 -1104 0
-1110 0 -15 60 -18 60 -3 0 7 587 10 1740 10 l1740 0 0 -655 0 -655 -55 0 -55
0 67 -135 c37 -74 70 -135 73 -135 3 0 36 61 73 135 l67 135 -55 0 -55 0 0
655 0 655 2651 0 c2618 0 2650 0 2644 -19 -6 -19 18 -41 43 -41 5 0 25 40 45
90 258 630 26 1358 -648 2036 -226 227 -471 423 -809 646 l-180 118 1127 0
1127 0 0 -55 0 -55 135 67 c74 37 135 70 135 73 0 3 -61 36 -135 73 l-135 67
0 -55 0 -55 -1177 0 -1177 0 -205 121 c-621 367 -893 601 -1054 907 -98 187
-137 350 -137 569 0 361 142 687 420 963 135 135 232 205 510 371 406 242 547
344 687 493 287 307 456 717 503 1221 26 286 3 574 -72 877 -31 127 -31 128
-57 121 -14 -3 -27 -7 -29 -8 -2 -2 13 -67 32 -146 58 -237 70 -344 71 -609 0
-245 -7 -320 -51 -532 -75 -359 -238 -676 -466 -907 -136 -139 -258 -226 -588
-421 -323 -191 -458 -287 -595 -426 -191 -193 -322 -422 -390 -686 -37 -140
-46 -389 -20 -533 9 -53 15 -99 12 -102 -7 -6 -1314 -433 -1327 -433 -7 0 -10
681 -10 1895 l0 1895 55 0 55 0 -67 135 c-37 74 -70 135 -73 135 -3 0 -36 -61
-73 -135 l-67 -135 55 0 55 0 0 -1908 0 -1908 -397 -129 c-219 -71 -404 -131
-410 -133 -10 -3 -13 112 -13 552 l0 556 -30 0 -30 0 -2 -567 -3 -567 -805
-263 -805 -263 -932 0 -933 0 0 2835 0 2835 3890 0 3890 0 0 30 0 30 -3905 0
c-3464 0 -3905 -2 -3905 -15z m5820 -4517 c1 -28 70 -181 118 -260 174 -287
423 -498 969 -824 98 -58 180 -108 182 -110 2 -2 -590 -4 -1317 -4 l-1322 0 2
387 3 387 665 217 c366 120 673 218 683 218 9 1 17 -5 17 -11z m-1430 -823 l0
-375 -410 0 -410 0 0 243 0 243 403 132 c221 72 405 131 410 132 4 0 7 -169 7
-375z m-880 -145 l0 -230 -707 1 c-390 0 -701 3 -693 7 38 15 1376 451 1388
452 9 0 12 -52 12 -230z m-1830 -298 c-8 -3 -383 -126 -832 -272 l-818 -267 0
273 0 274 833 -1 c457 0 825 -3 817 -7z m1830 -1377 l0 -1385 -1740 0 -1740 0
2 1082 3 1082 925 302 925 302 813 1 812 1 0 -1385z m880 0 l0 -1385 -410 0
-410 0 0 1385 0 1385 410 0 410 0 0 -1385z m2893 1333 c427 -267 744 -514
1007 -784 386 -397 613 -794 686 -1199 23 -133 24 -357 0 -480 -19 -100 -78
-285 -84 -267 -3 9 -520 12 -2223 12 l-2219 0 0 1385 0 1385 1375 0 1375 0 83
-52z"/>
<path d="M6114 9367 c17 -13 16 -19 -13 -128 -18 -63 -39 -120 -48 -126 -14
-11 -7 -13 42 -13 52 0 57 2 40 14 -17 12 -17 17 -5 62 16 61 22 68 54 60 18
-4 26 -13 27 -29 1 -19 2 -18 14 9 8 17 17 44 20 60 l6 29 -17 -22 c-10 -15
-27 -23 -45 -23 -32 0 -34 6 -17 62 11 39 12 39 57 36 36 -2 48 -8 57 -26 l11
-23 7 23 c12 48 12 48 -101 48 -91 0 -104 -2 -89 -13z"/>
<path d="M6328 9181 c12 -7 10 -22 -8 -87 -11 -43 -26 -84 -32 -91 -8 -10 -2
-13 28 -13 107 1 174 46 174 118 0 60 -30 82 -111 82 -39 0 -59 -4 -51 -9z
m99 -9 c36 -23 32 -96 -9 -139 -25 -27 -78 -32 -78 -7 0 13 20 94 35 142 5 13
33 16 52 4z"/>
<path d="M1470 6740 c-96 -33 -150 -122 -150 -250 0 -119 43 -199 128 -238 46
-21 64 -24 123 -20 108 8 171 62 194 166 6 31 6 32 -28 32 -31 0 -36 -4 -51
-45 -20 -52 -54 -82 -103 -91 -105 -20 -193 72 -193 202 0 48 23 120 48 147
66 73 205 61 241 -21 12 -27 20 -32 48 -32 27 0 33 4 33 20 0 55 -62 119 -135
139 -56 15 -91 13 -155 -9z"/>
<path d="M9711 6728 c-12 -29 -170 -435 -182 -465 -8 -21 -6 -23 30 -23 l38 0
28 75 27 75 103 0 103 0 27 -75 28 -75 38 0 c22 0 39 3 39 6 0 11 -184 479
-193 492 -5 6 -25 12 -43 12 -26 0 -37 -5 -43 -22z m83 -162 c20 -54 36 -102
36 -107 0 -5 -34 -9 -75 -9 -41 0 -75 3 -75 8 0 10 73 212 76 209 2 -1 19 -47
38 -101z"/>
<path d="M11570 5200 c0 -5 7 -10 15 -10 8 0 15 -6 15 -13 0 -31 -62 -223 -75
-233 -8 -6 -12 -14 -8 -17 10 -11 103 -8 103 3 0 6 -7 10 -15 10 -18 0 -19 12
-1 70 11 39 17 45 44 48 25 3 31 -1 34 -20 4 -22 5 -22 16 5 7 15 15 40 18 54
l7 27 -28 -22 c-15 -12 -37 -22 -47 -22 -18 0 -19 4 -13 37 10 55 23 73 50 73
38 0 75 -18 75 -37 0 -15 2 -16 10 -3 5 8 10 25 10 38 0 21 -3 22 -105 22 -63
0 -105 -4 -105 -10z"/>
<path d="M11829 4997 c-40 -26 -66 -89 -55 -131 13 -53 102 -69 142 -25 21 23
12 25 -21 3 -54 -35 -95 5 -81 80 7 35 55 86 81 86 16 0 45 -27 46 -43 1 -14
17 22 18 41 2 22 -92 15 -130 -11z"/>
<path d="M724 4235 c19 -14 19 -17 -10 -122 -16 -59 -37 -116 -46 -125 -17
-17 -15 -18 40 -17 31 1 49 3 40 6 -22 5 -22 11 -3 77 15 50 17 52 45 48 22
-3 30 -10 30 -25 0 -29 15 -11 30 36 13 42 7 59 -13 35 -6 -9 -25 -18 -40 -21
-28 -4 -29 -4 -22 32 12 63 21 72 68 69 32 -2 44 -8 53 -26 10 -20 12 -21 18
-7 3 9 6 25 6 36 0 18 -8 19 -107 19 -96 -1 -106 -2 -89 -15z"/>
<path d="M980 4028 c-13 -24 -40 -71 -61 -105 -38 -63 -38 -63 -14 -63 17 0
23 4 19 14 -10 26 15 56 47 56 34 0 48 -23 30 -51 -10 -17 -8 -19 25 -19 28 0
34 3 26 13 -5 6 -16 48 -22 92 -17 108 -21 114 -50 63z m19 -70 c1 -13 -7 -18
-24 -18 l-25 0 17 36 c15 30 18 32 24 17 4 -10 8 -26 8 -35z"/>
<path d="M6027 1593 c-4 -3 -7 -119 -7 -256 l0 -249 133 4 c113 3 138 7 174
26 79 41 121 143 111 267 -10 121 -72 188 -189 205 -75 11 -213 13 -222 3z
m262 -81 c51 -25 76 -81 75 -168 -1 -54 -6 -80 -23 -111 -34 -60 -71 -77 -166
-78 l-80 0 -3 188 -2 187 82 0 c59 0 93 -5 117 -18z"/>
<path d="M5439 770 c-43 -23 -86 -71 -95 -106 -4 -14 -4 -46 -1 -72 7 -65 42
-92 117 -92 75 0 100 15 116 70 7 25 21 50 31 57 14 11 8 13 -42 13 -51 0 -57
-2 -41 -13 17 -12 17 -18 6 -53 -15 -46 -24 -54 -67 -54 -84 0 -97 136 -21
217 44 47 118 38 140 -15 9 -25 11 -26 18 -7 26 70 26 70 -53 72 -55 2 -81 -3
-108 -17z"/>
</g>
</svg>
