<?xml version="1.0" standalone="no"?>
<!DOCTYPE svg PUBLIC "-//W3C//DTD SVG 20010904//EN"
 "http://www.w3.org/TR/2001/REC-SVG-20010904/DTD/svg10.dtd">
<svg version="1.0" xmlns="http://www.w3.org/2000/svg"
 width="1422.000000pt" height="982.000000pt" viewBox="0 0 1422.000000 982.000000"
 preserveAspectRatio="xMidYMid meet">

<g transform="translate(0.000000,982.000000) scale(0.100000,-0.100000)"
fill="#000000" stroke="none">
<path d="M13635 8579 c-55 -5 -242 -30 -415 -55 -764 -110 -899 -144 -1245
-314 -181 -88 -265 -121 -343 -135 -47 -8 -49 -5 -26 30 11 17 26 25 45 25 26
0 29 4 29 30 l0 30 -1372 0 -1373 0 -90 25 c-693 194 -910 199 -1544 39 l-253
-64 -611 0 c-701 0 -578 -15 -1007 125 -430 141 -563 168 -830 168 -307 0
-563 -58 -860 -196 -119 -55 -257 -138 -522 -314 -377 -250 -522 -315 -708
-316 -183 0 -271 42 -605 287 -211 155 -335 206 -555 227 -132 13 -378 5 -580
-17 -250 -28 -481 -85 -684 -170 -84 -35 -86 -37 -86 -70 l0 -34 58 26 c103
48 296 112 412 137 174 39 304 56 532 68 423 24 597 -17 848 -201 221 -161
274 -197 350 -236 104 -54 201 -78 315 -76 190 2 355 72 685 292 460 307 632
395 911 469 364 97 679 90 1059 -24 184 -55 437 -143 413 -144 -19 -1 -23 -7
-23 -31 l0 -30 136 0 c86 0 157 -5 193 -14 54 -14 182 -37 283 -51 l48 -6 -45
-89 c-25 -49 -45 -92 -45 -95 0 -3 25 -5 55 -5 l55 0 0 -967 c0 -531 -2 -964
-4 -962 -3 3 -25 56 -50 119 -42 107 -47 115 -74 118 -28 3 -29 2 -90 -155
-34 -87 -64 -166 -68 -176 -6 -16 -2 -18 21 -15 23 2 31 11 48 56 l20 52 67 0
68 0 18 -51 c11 -28 25 -54 31 -56 10 -4 13 -84 13 -359 l0 -354 -50 0 c-27 0
-50 -2 -50 -5 0 -10 135 -275 140 -275 5 0 140 265 140 275 0 3 -25 5 -55 5
l-55 0 0 998 c0 549 -3 1168 -7 1375 l-6 377 56 0 c32 0 57 2 57 5 0 3 -18 41
-40 85 -22 44 -40 81 -40 83 0 2 78 7 173 10 177 6 320 24 465 58 73 17 123
19 432 19 l349 0 -7 -32 c-4 -18 -7 -91 -7 -163 0 -126 1 -132 33 -196 22 -45
51 -85 91 -122 88 -81 152 -109 304 -132 l37 -6 -31 -47 c-17 -26 -44 -58 -59
-72 -15 -14 -145 -207 -290 -430 -200 -307 -1198 -1808 -1215 -1828 -2 -2 -20
8 -41 22 -21 14 -39 24 -40 23 -6 -6 -36 -298 -31 -303 5 -5 267 143 267 152
0 2 -20 15 -45 30 -25 14 -45 28 -45 30 0 20 1594 2426 1612 2433 5 2 13 14
18 27 7 18 226 348 249 376 4 4 27 -6 51 -22 l45 -30 6 31 c4 17 13 82 20 145
l12 115 136 -3 c129 -4 148 -7 373 -66 543 -142 824 -161 1243 -83 307 57 403
62 695 36 91 -8 202 -15 248 -15 45 0 82 -2 82 -5 0 -16 -3141 -4820 -3152
-4819 -7 1 -436 303 -953 673 l-940 671 3 59 c11 182 -197 273 -315 138 -66
-75 -63 -174 6 -247 62 -66 141 -74 228 -24 l43 25 947 -677 c522 -372 949
-678 951 -679 2 -2 -296 -461 -661 -1021 l-663 -1019 -3013 -3 -3013 -2 14 22
c899 1375 4598 7059 4598 7065 0 9 -40 37 -45 31 -4 -4 -4516 -6929 -4598
-7056 -49 -76 -57 -95 -47 -107 11 -13 368 -15 3074 -15 l3061 1 670 1029
c369 567 674 1030 678 1030 9 0 1152 -813 1180 -840 18 -17 18 -19 -13 -61
l-32 -44 152 -24 c83 -13 153 -21 156 -19 2 3 -28 66 -68 141 l-72 136 -31
-44 c-16 -24 -35 -43 -41 -41 -18 7 -1189 846 -1192 855 -2 5 709 1102 1579
2437 870 1336 1583 2430 1583 2431 1 1 33 7 71 13 113 17 199 49 389 143 249
122 407 175 681 227 195 36 865 130 1017 142 168 13 347 1 461 -30 l67 -19 0
33 c0 32 -1 33 -68 48 -153 35 -313 42 -517 25z m-5322 -298 c100 -18 339 -72
372 -85 6 -3 -303 -4 -685 -4 l-695 0 90 24 c125 33 325 73 420 84 121 13 363
4 498 -19z m-2075 -158 c-10 -2 -26 -2 -35 0 -10 3 -2 5 17 5 19 0 27 -2 18
-5z m402 -3 c-101 -12 -338 -11 -345 0 -4 7 65 9 202 8 147 -1 189 -3 143 -8z
m1990 6 c0 -2 -50 -32 -111 -66 l-110 -62 38 -26 c21 -13 42 -28 46 -32 5 -4
-48 -93 -118 -198 -104 -156 -132 -191 -154 -195 -47 -10 -149 10 -214 41 -84
40 -137 89 -178 164 l-34 63 0 152 c1 145 0 152 -20 156 -11 2 177 5 418 6
240 0 437 -1 437 -3z m2898 -31 l-23 -35 -102 0 c-55 0 -184 7 -285 16 -254
22 -411 15 -656 -30 -343 -63 -502 -69 -791 -26 -124 18 -434 84 -476 101 -11
4 514 8 1168 8 l1187 1 -22 -35z m-5392 -2037 c9 -29 19 -59 22 -65 3 -9 -10
-13 -48 -13 -38 0 -51 4 -48 13 3 6 13 36 22 65 10 28 21 52 26 52 5 0 16 -24
26 -52z"/>
<path d="M7587 7690 c-63 -57 -99 -138 -105 -230 -4 -66 -1 -78 18 -102 42
-53 131 -28 183 51 71 107 89 276 33 313 -6 4 -28 8 -49 8 -30 0 -46 -8 -80
-40z m103 0 c7 -12 8 -40 5 -68 -12 -84 -10 -82 -76 -82 -41 0 -59 4 -59 13 1
22 36 91 64 125 32 37 51 40 66 12z m-20 -183 c0 -8 -14 -42 -31 -76 -56 -112
-116 -106 -106 11 3 31 8 61 12 67 10 17 125 14 125 -2z"/>
<path d="M5145 6373 c-37 -6 -58 -23 -27 -23 13 0 22 -6 22 -16 0 -15 -76
-312 -87 -341 -4 -11 1 -14 22 -11 23 2 30 10 40 43 23 78 90 175 121 175 19
0 18 -17 -6 -102 -24 -87 -25 -117 -4 -125 22 -8 60 12 80 42 22 34 10 45 -15
14 -11 -13 -22 -21 -25 -18 -4 3 5 47 19 97 22 74 24 95 15 112 -17 31 -64 20
-112 -27 -21 -20 -38 -35 -38 -32 0 2 11 45 25 94 28 102 30 126 13 124 -7 -1
-26 -4 -43 -6z"/>
<path d="M4811 6348 c-5 -13 -43 -99 -85 -192 -42 -93 -74 -171 -72 -173 2 -2
84 -2 184 -1 l180 3 -86 189 c-48 104 -93 191 -99 194 -7 2 -17 -7 -22 -20z
m62 -198 l46 -105 -49 -3 c-27 -2 -73 -2 -103 0 l-54 3 50 113 c28 62 54 109
58 105 4 -4 27 -55 52 -113z"/>
<path d="M7587 6293 c-13 -21 -167 -375 -167 -383 0 -6 70 -10 180 -10 107 0
180 4 180 9 0 17 -173 391 -181 391 -4 0 -10 -3 -12 -7z m57 -228 l44 -100
-100 -3 c-56 -1 -103 -1 -105 2 -4 4 20 64 72 181 24 51 29 57 36 40 5 -11 29
-65 53 -120z"/>
<path d="M5462 6183 c-35 -7 -90 -68 -103 -115 -6 -24 -9 -65 -5 -91 11 -99
65 -148 161 -148 81 0 126 35 141 109 6 29 4 32 -20 32 -20 0 -26 -5 -26 -21
0 -34 -53 -79 -94 -79 -105 0 -152 169 -69 246 45 42 134 29 153 -22 7 -17 17
-24 35 -24 29 0 31 10 9 51 -26 51 -103 77 -182 62z"/>
<path d="M7825 6150 c-19 -8 -19 -9 2 -9 30 -1 51 -36 74 -123 26 -100 24
-121 -12 -163 -26 -30 -34 -33 -51 -24 -29 15 -58 -12 -38 -36 38 -46 144 67
227 240 41 86 41 119 1 123 -23 3 -28 -1 -28 -18 0 -11 7 -23 16 -27 20 -7 12
-42 -23 -103 l-26 -44 -24 88 c-12 48 -26 92 -29 97 -7 11 -62 11 -89 -1z"/>
<path d="M8159 6087 c-47 -31 -71 -84 -71 -157 0 -106 49 -169 139 -177 85 -9
140 28 163 106 8 29 7 31 -19 31 -24 0 -30 -5 -34 -30 -17 -84 -156 -81 -187
4 -51 143 70 268 167 171 35 -35 73 -47 73 -22 0 20 -37 70 -62 83 -39 22
-130 17 -169 -9z"/>
<path d="M8816 6102 c-3 -5 -33 -80 -67 -168 -33 -87 -63 -162 -66 -166 -2 -5
9 -8 26 -8 27 0 31 5 46 50 l17 51 71 -3 71 -3 17 -45 c14 -38 21 -45 47 -48
l30 -3 -68 173 c-61 156 -70 173 -93 176 -14 2 -28 -1 -31 -6z m71 -188 c-3
-3 -25 -4 -49 -2 l-45 3 25 68 25 69 24 -67 c14 -37 22 -69 20 -71z"/>
<path d="M5734 6056 c-31 -31 -34 -39 -34 -96 0 -57 3 -65 34 -96 29 -29 41
-34 80 -34 77 0 126 50 126 130 0 79 -51 130 -131 130 -33 0 -47 -6 -75 -34z
m131 -31 c72 -71 -19 -203 -93 -135 -51 47 -19 160 45 160 13 0 35 -11 48 -25z"/>
<path d="M8504 6010 c-11 -4 -33 -22 -47 -40 -52 -61 -30 -172 39 -205 41 -19
68 -19 110 1 43 21 64 59 64 119 0 60 -21 98 -64 119 -37 17 -69 19 -102 6z
m96 -60 c14 -14 20 -33 20 -65 0 -54 -25 -85 -70 -85 -44 0 -70 31 -70 83 0
76 71 116 120 67z"/>
<path d="M5684 3906 c-95 -44 -141 -140 -131 -275 11 -167 105 -251 266 -238
48 4 73 12 104 33 44 31 86 103 87 147 0 24 -4 27 -33 27 -30 0 -34 -4 -50
-49 -46 -130 -213 -133 -277 -6 -35 70 -35 171 0 235 34 61 100 95 165 86 51
-8 100 -44 109 -81 6 -22 12 -25 47 -25 37 0 40 2 33 23 -15 49 -23 63 -50 89
-66 62 -179 77 -270 34z"/>
<path d="M6547 3667 c-53 -138 -97 -256 -97 -260 0 -5 16 -7 36 -5 36 3 38 5
63 73 l27 70 109 0 109 0 26 -70 25 -70 42 -3 43 -3 -14 38 c-8 21 -44 115
-81 208 -37 94 -76 194 -87 223 -19 51 -20 52 -61 52 l-42 0 -98 -253z m178
69 c19 -53 35 -101 35 -106 0 -6 -34 -10 -75 -10 -41 0 -75 3 -75 8 0 12 73
213 76 209 2 -2 19 -47 39 -101z"/>
<path d="M6205 3783 c-92 -24 -139 -88 -139 -192 -1 -48 5 -77 20 -106 73
-139 293 -116 334 36 26 94 -11 208 -78 243 -31 16 -107 27 -137 19z m103 -79
c87 -56 56 -231 -43 -250 -70 -13 -129 50 -129 136 0 110 88 168 172 114z"/>
<path d="M9585 3221 c-3 -5 -1 -12 5 -16 5 -3 10 -13 10 -21 0 -12 -33 -14
-205 -14 -176 0 -205 -2 -205 -15 0 -13 28 -15 194 -15 107 0 201 -3 210 -6
12 -5 13 -9 3 -24 -19 -31 1 -36 31 -8 15 14 37 31 50 37 23 12 23 13 -22 43
-25 16 -46 34 -46 39 0 12 -17 12 -25 0z"/>
<path d="M9413 3013 c-11 -15 -59 -97 -108 -181 -48 -85 -96 -159 -106 -165
-32 -20 -22 -27 36 -27 30 0 55 5 55 10 0 6 -7 10 -15 10 -21 0 -19 26 7 71
22 39 22 39 84 39 l62 0 6 -45 c8 -49 3 -65 -20 -65 -8 0 -14 -4 -14 -10 0 -6
30 -10 70 -10 72 0 84 6 52 27 -15 9 -25 47 -47 185 -15 95 -31 177 -35 181
-4 5 -16 -4 -27 -20z m1 -165 l7 -48 -51 0 -52 0 20 33 c10 17 28 47 38 65 21
37 26 30 38 -50z"/>
</g>
</svg>
