<?xml version="1.0" standalone="no"?>
<!DOCTYPE svg PUBLIC "-//W3C//DTD SVG 20010904//EN"
 "http://www.w3.org/TR/2001/REC-SVG-20010904/DTD/svg10.dtd">
<svg version="1.0" xmlns="http://www.w3.org/2000/svg"
 width="3264.000000pt" height="2448.000000pt" viewBox="0 0 3264.000000 2448.000000"
 preserveAspectRatio="xMidYMid meet">

<g transform="translate(0.000000,2448.000000) scale(0.100000,-0.100000)"
fill="#000000" stroke="none">
<path d="M29800 20557 c-3 -3 -113 -7 -245 -11 -132 -4 -343 -11 -470 -16
-464 -19 -575 -22 -830 -29 -342 -9 -2352 -17 -3240 -13 -385 2 -884 -2 -1110
-8 -225 -6 -489 -13 -585 -15 -96 -3 -528 -7 -960 -10 -779 -5 -1542 -14
-1590 -20 -14 -1 -173 -5 -355 -9 -181 -3 -395 -8 -475 -11 -80 -3 -381 -7
-670 -10 -289 -3 -586 -7 -660 -10 -74 -3 -209 -7 -300 -10 -149 -5 -347 -15
-925 -45 -104 -5 -278 -14 -385 -20 -107 -5 -373 -14 -590 -20 -662 -17 -998
-29 -1385 -50 -388 -21 -443 -25 -960 -64 -524 -40 -911 -58 -1720 -76 -409
-10 -802 -25 -910 -35 -27 -2 -124 -9 -215 -15 -91 -6 -268 -20 -395 -31 -557
-47 -1030 -83 -1450 -109 -88 -5 -182 -12 -210 -15 -27 -2 -117 -7 -200 -10
-241 -9 -805 -41 -990 -56 -71 -5 -249 -19 -395 -30 -146 -10 -314 -24 -375
-29 -473 -40 -1109 -68 -1765 -75 -515 -6 -1271 -23 -1370 -30 -68 -5 -476
-22 -710 -30 -96 -3 -227 -7 -290 -10 -136 -5 -483 -13 -960 -21 -1046 -17
-1427 -41 -1795 -110 -72 -14 -152 -31 -180 -39 -27 -8 -69 -19 -92 -25 l-43
-11 0 -85 c0 -77 2 -85 18 -80 19 5 244 42 307 50 158 20 212 26 300 31 55 3
111 8 125 10 67 11 774 32 1320 40 335 5 505 9 820 20 147 6 208 8 680 30 693
32 973 40 1800 50 250 3 543 10 650 15 107 5 245 12 305 15 61 3 130 8 155 10
25 2 90 7 145 10 55 3 228 17 385 31 541 47 1231 96 1680 119 63 3 144 8 180
10 36 2 182 11 325 20 143 8 323 20 400 26 77 6 178 12 225 15 47 2 126 9 175
14 50 5 122 10 160 12 39 1 73 3 77 5 4 2 40 6 80 9 73 4 102 7 211 19 32 4
84 8 115 10 31 2 57 4 57 5 0 1 25 4 55 5 115 7 257 16 300 20 122 12 253 21
470 30 303 13 351 14 580 20 129 3 309 8 400 10 91 3 251 7 355 10 105 3 222
7 260 10 39 2 126 7 195 10 69 3 145 8 170 10 25 3 97 7 160 10 120 6 171 10
280 20 36 3 135 10 220 16 85 5 215 14 288 19 351 26 417 30 547 36 77 3 163
7 190 10 93 7 219 13 450 18 127 4 277 8 335 11 58 3 204 7 325 10 208 5 270
7 610 20 145 6 440 21 580 30 44 3 172 10 285 15 113 6 237 13 275 15 216 13
486 19 1465 30 256 3 515 8 575 10 61 3 200 7 310 10 110 3 331 10 490 15 160
6 720 12 1245 15 525 2 1011 7 1080 10 313 17 639 22 1495 23 506 1 1145 4
1420 7 1187 12 1703 18 1745 20 25 1 182 5 350 9 293 6 706 20 895 31 50 2
185 7 300 10 116 4 244 8 285 10 41 3 550 5 1130 5 957 0 1619 -10 1773 -26
l57 -6 0 81 0 81 -57 1 c-32 1 -65 3 -73 3 -123 12 -2699 33 -2710 23z m2098
-75 c78 -2 142 -6 142 -10 0 -4 -447 -8 -993 -9 -1003 -3 -1421 -7 -1622 -17
-60 -3 -193 -8 -295 -11 -102 -3 -223 -7 -270 -10 -99 -7 -237 -12 -510 -20
-107 -3 -226 -8 -265 -10 -38 -3 -250 -7 -470 -10 -220 -3 -472 -7 -560 -10
-88 -2 -801 -7 -1585 -10 -1573 -6 -1780 -8 -2375 -30 -66 -2 -424 -7 -795
-10 -898 -7 -1523 -15 -1590 -20 -129 -9 -1127 -34 -1625 -40 -231 -3 -528 -7
-660 -10 -232 -6 -1139 -49 -1240 -60 -70 -7 -437 -22 -980 -40 -1115 -37
-1543 -59 -2210 -115 -148 -13 -333 -26 -530 -40 -177 -12 -809 -37 -1115 -45
-443 -10 -908 -29 -1130 -45 -74 -6 -171 -13 -215 -16 -151 -10 -210 -14 -310
-24 -110 -11 -406 -36 -585 -50 -63 -5 -137 -12 -165 -14 -135 -15 -940 -70
-1170 -81 -115 -6 -584 -33 -765 -45 -150 -10 -215 -14 -350 -25 -36 -2 -98
-7 -137 -10 -142 -10 -221 -16 -433 -36 -118 -11 -260 -22 -315 -25 -55 -2
-136 -9 -180 -14 -95 -11 -422 -24 -415 -17 3 3 48 8 100 11 52 4 127 9 165
11 39 3 104 8 145 10 102 7 393 33 515 45 55 6 190 17 300 25 110 8 223 17
250 20 28 3 122 10 210 15 88 6 187 13 220 15 90 7 395 24 520 30 148 6 416
23 665 41 113 8 237 17 275 19 39 3 156 12 260 21 105 9 237 19 295 24 58 5
177 15 265 24 180 17 245 22 425 36 69 5 154 12 190 15 114 9 361 24 475 29
352 16 387 17 990 31 132 3 281 7 330 10 50 2 158 7 240 10 83 4 175 8 205 10
30 2 134 9 230 15 96 6 221 15 278 20 57 5 106 9 110 8 4 -1 41 2 82 6 41 4
100 9 130 11 30 2 116 8 190 14 74 6 169 13 210 16 41 3 138 9 215 15 271 19
1045 50 1625 65 118 3 258 7 310 10 52 3 147 8 210 11 63 3 345 18 625 34 631
36 990 48 1625 55 498 5 828 11 1060 20 69 3 285 9 480 15 195 5 400 12 455
15 55 3 451 6 880 7 714 2 909 5 1365 22 264 10 786 16 1800 21 536 3 1110 7
1275 10 165 3 536 7 825 10 586 6 1035 18 1555 41 522 23 727 30 969 33 121 1
222 4 225 7 5 5 1679 2 1949 -4z m354 -19 c-40 -2 -103 -2 -140 0 -37 2 -4 3
73 3 77 0 107 -2 67 -3z m-2497 -43 c3 -5 -1 -10 -10 -10 -9 0 -13 5 -10 10 3
6 8 10 10 10 2 0 7 -4 10 -10z m193 3 c-10 -2 -28 -2 -40 0 -13 2 -5 4 17 4
22 1 32 -1 23 -4z m699 1 c-3 -3 -12 -4 -19 -1 -8 3 -5 6 6 6 11 1 17 -2 13
-5z m-24487 -874 c-8 -5 -46 -9 -85 -8 -63 1 -65 2 -25 7 81 11 127 12 110 1z
m-177 -7 c-13 -2 -33 -2 -45 0 -13 2 -3 4 22 4 25 0 35 -2 23 -4z m-340 -10
c-7 -2 -19 -2 -25 0 -7 3 -2 5 12 5 14 0 19 -2 13 -5z m185 0 c-21 -2 -57 -2
-80 0 -24 2 -7 4 37 4 44 0 63 -2 43 -4z m-920 -10 c-10 -2 -26 -2 -35 0 -10
3 -2 5 17 5 19 0 27 -2 18 -5z m135 0 c-7 -2 -19 -2 -25 0 -7 3 -2 5 12 5 14
0 19 -2 13 -5z m180 0 c-13 -2 -33 -2 -45 0 -13 2 -3 4 22 4 25 0 35 -2 23 -4z
m110 0 c-7 -2 -19 -2 -25 0 -7 3 -2 5 12 5 14 0 19 -2 13 -5z m-835 -10 c-10
-2 -26 -2 -35 0 -10 3 -2 5 17 5 19 0 27 -2 18 -5z m-290 -10 c-10 -2 -28 -2
-40 0 -13 2 -5 4 17 4 22 1 32 -1 23 -4z m-261 -9 c-3 -3 -12 -4 -19 -1 -8 3
-5 6 6 6 11 1 17 -2 13 -5z m-209 -11 c-10 -2 -28 -2 -40 0 -13 2 -5 4 17 4
22 1 32 -1 23 -4z m65 0 c-7 -2 -21 -2 -30 0 -10 3 -4 5 12 5 17 0 24 -2 18
-5z m-290 -10 c-13 -2 -35 -2 -50 0 -16 2 -5 4 22 4 28 0 40 -2 28 -4z m-156
-9 c-3 -3 -12 -4 -19 -1 -8 3 -5 6 6 6 11 1 17 -2 13 -5z"/>
<path d="M31935 20042 c-27 -1 -117 -11 -200 -22 -82 -10 -179 -22 -215 -25
-36 -3 -103 -11 -150 -17 -78 -11 -89 -15 -136 -55 -61 -51 -71 -77 -41 -98
28 -19 105 -19 227 0 242 39 426 66 545 80 144 17 156 19 210 34 40 11 85 46
85 67 0 25 -170 44 -325 36z"/>
<path d="M24925 20000 c-22 -5 -59 -13 -82 -18 -28 -6 -62 -27 -103 -62 -131
-113 -100 -142 113 -104 67 11 131 14 265 10 231 -8 319 4 420 52 62 30 81 44
97 75 26 50 12 60 -70 52 -79 -8 -54 -8 -345 -2 -140 3 -273 1 -295 -3z"/>
<path d="M21990 19972 c-49 -13 -81 -30 -132 -70 -75 -59 -91 -88 -62 -109 16
-12 78 -13 344 -9 179 3 352 9 385 14 92 15 196 69 220 114 11 20 16 40 11 45
-4 4 -134 9 -289 11 -155 1 -306 7 -336 12 -66 12 -60 12 -141 -8z"/>
<path d="M28270 19983 c-182 -10 -209 -14 -253 -44 -103 -68 -121 -107 -57
-120 19 -4 96 -4 170 1 74 6 221 14 325 20 201 11 300 31 355 70 30 22 46 53
35 70 -6 10 -412 11 -575 3z"/>
<path d="M19450 19960 c-52 -18 -189 -36 -456 -59 -67 -6 -152 -20 -189 -32
-57 -17 -76 -30 -131 -85 -65 -66 -76 -92 -49 -114 16 -13 48 -11 215 14 58 9
166 25 240 36 235 35 288 51 387 113 73 45 115 91 111 121 -4 29 -57 32 -128
6z"/>
<path d="M16408 19904 c-83 -22 -181 -38 -281 -48 -201 -19 -252 -41 -314
-136 -71 -108 -62 -118 101 -119 84 0 143 6 205 20 114 26 181 48 181 60 0 11
102 59 124 59 17 0 110 62 160 107 l36 32 -18 30 c-21 38 -29 38 -194 -5z"/>
<path d="M26280 19901 c0 -5 -10 -11 -21 -13 -12 -2 -26 -13 -30 -26 -7 -19
-4 -24 19 -34 28 -11 77 -12 94 -2 5 3 3 13 -5 22 -8 10 -17 26 -19 37 -3 20
-38 35 -38 16z"/>
<path d="M13640 19839 c-80 -32 -316 -61 -479 -57 -138 2 -148 1 -178 -20 -17
-12 -36 -22 -41 -22 -36 0 -132 -140 -119 -174 3 -8 25 -20 49 -27 87 -24 436
28 618 93 47 16 94 32 105 36 36 10 148 88 164 114 8 12 5 23 -10 42 -22 28
-62 33 -109 15z"/>
<path d="M10767 19674 c-11 -10 -305 -26 -476 -27 -187 -2 -222 -4 -237 -18
-11 -9 -35 -25 -54 -34 -19 -10 -41 -25 -47 -34 -28 -36 -73 -122 -73 -140 0
-40 20 -44 218 -38 257 7 576 55 681 103 29 13 59 24 65 24 32 0 148 142 130
159 -5 5 -202 9 -207 5z"/>
<path d="M7685 19540 c-33 -5 -127 -15 -210 -24 -82 -9 -179 -22 -215 -28 -36
-6 -150 -12 -255 -14 -188 -2 -236 -9 -252 -37 -4 -8 -22 -21 -39 -30 -20 -11
-46 -42 -77 -96 -52 -89 -53 -93 -33 -111 30 -24 228 -18 451 14 55 8 116 17
135 20 140 19 345 58 395 75 49 18 72 35 132 97 40 42 73 83 73 91 0 22 -19
53 -33 52 -7 -1 -39 -5 -72 -9z"/>
<path d="M4297 19394 c-7 -7 -259 -58 -337 -69 -30 -4 -64 -9 -75 -11 -40 -9
-132 -24 -215 -35 -47 -6 -94 -13 -106 -15 -21 -4 -164 -141 -164 -157 0 -5
-11 -23 -26 -39 -14 -17 -24 -40 -22 -52 3 -19 10 -21 66 -22 34 -1 79 2 100
6 20 4 109 22 197 39 277 54 338 68 415 96 84 31 100 41 100 62 0 8 13 25 29
39 47 39 89 110 84 139 -5 23 -30 34 -46 19z"/>
<path d="M17904 19166 c-6 -17 2 -36 17 -36 12 0 12 37 -1 45 -6 3 -13 -1 -16
-9z"/>
<path d="M1470 19096 c-14 -6 -36 -19 -50 -28 -13 -10 -34 -18 -45 -18 -16 0
-17 -2 -5 -10 10 -7 -13 -10 -75 -10 -135 -1 -222 -8 -244 -19 -11 -6 -31 -11
-45 -11 -13 0 -37 -5 -53 -12 -15 -6 -33 -10 -40 -9 -7 1 -28 -5 -48 -13 -23
-10 -69 -15 -136 -15 -78 1 -104 -3 -118 -15 -10 -9 -22 -16 -28 -16 -12 0
-103 -89 -103 -100 0 -5 -13 -29 -29 -52 -61 -90 -51 -128 31 -128 51 0 213
29 303 55 104 29 263 65 335 75 91 12 182 40 235 72 52 31 143 125 161 165 18
41 17 53 -4 79 -14 18 -21 20 -42 10z"/>
<path d="M22000 18461 c0 -5 5 -13 10 -16 6 -3 10 -2 10 4 0 5 -4 13 -10 16
-5 3 -10 2 -10 -4z"/>
<path d="M2945 18118 c-50 -7 -95 -31 -95 -50 0 -7 18 -31 40 -53 61 -63 65
-89 22 -161 -53 -87 -141 -204 -158 -211 -11 -4 -40 20 -92 74 -43 44 -88 87
-102 95 -58 34 -217 25 -257 -14 -13 -14 -6 -24 59 -89 57 -58 83 -94 120
-170 39 -79 58 -105 104 -143 50 -41 62 -46 106 -46 38 0 59 7 91 28 23 16 56
32 72 36 17 4 52 31 80 59 55 57 242 333 259 382 6 17 26 48 44 70 17 22 32
42 32 45 0 24 -67 126 -88 136 -26 12 -184 20 -237 12z m15 -278 c0 -14 -89
-150 -117 -178 -36 -36 -27 -4 15 52 21 28 49 70 62 94 23 40 40 54 40 32z"/>
<path d="M31235 17503 c-45 -7 -53 -18 -44 -61 4 -20 18 -90 30 -155 24 -131
23 -135 -36 -138 -118 -5 -145 -8 -185 -18 -97 -25 -114 -54 -62 -104 43 -42
121 -67 203 -67 82 0 90 -7 142 -114 17 -34 33 -63 37 -66 3 -3 15 -20 25 -37
11 -18 22 -33 25 -34 3 0 16 -2 30 -4 14 -2 43 -9 66 -16 49 -15 74 -7 74 22
0 13 7 30 16 40 12 13 16 41 16 119 1 55 6 104 11 107 5 3 68 5 140 5 135 0
173 7 183 33 8 21 -21 52 -60 64 -17 5 -86 17 -154 27 -67 10 -128 21 -134 25
-6 4 -12 29 -14 55 -12 181 -21 228 -51 258 -41 41 -174 72 -258 59z"/>
<path d="M28080 17473 c-14 -2 -35 -9 -47 -15 -22 -11 -23 -18 -23 -113 0
-107 -10 -135 -45 -121 -18 6 -121 -15 -211 -45 -67 -22 -144 -80 -144 -109 0
-12 17 -26 48 -42 61 -30 141 -30 244 0 43 12 82 22 87 22 19 0 42 -66 52
-145 12 -96 27 -151 46 -167 21 -17 129 -25 185 -13 l31 7 -7 61 c-5 52 5 199
19 264 4 18 17 23 77 34 66 11 87 21 88 41 0 15 -60 48 -96 53 -78 12 -75 8
-74 103 0 48 -2 101 -4 117 -2 17 -4 35 -5 40 -3 27 -129 43 -221 28z"/>
<path d="M25045 17410 c-44 -3 -97 -12 -117 -19 -35 -12 -37 -14 -43 -69 -15
-150 -28 -213 -44 -221 -9 -5 -42 -14 -74 -21 -61 -12 -165 -51 -203 -77 -38
-24 -30 -55 21 -92 43 -31 51 -33 137 -34 l92 -2 11 -42 c5 -23 13 -45 18 -49
4 -4 7 -14 7 -22 0 -8 12 -40 28 -70 34 -68 104 -122 134 -103 10 6 29 9 42 5
23 -5 93 26 108 50 4 6 5 38 2 71 -7 75 20 234 44 253 9 7 47 12 93 12 43 0
81 5 84 10 3 6 16 10 28 10 27 0 67 26 67 43 0 27 -83 56 -179 63 l-93 7 7 41
c14 85 22 175 17 201 -2 15 -14 30 -27 35 -13 5 -26 14 -30 19 -3 6 -16 10
-28 9 -12 0 -58 -4 -102 -8z"/>
<path d="M22325 17390 c-66 -7 -138 -36 -172 -69 -21 -20 -26 -34 -49 -134 -9
-39 -9 -39 -114 -74 -146 -48 -240 -104 -240 -143 0 -21 23 -41 71 -63 34 -16
42 -16 105 -1 38 9 88 22 111 29 l42 14 29 -52 c66 -120 84 -148 115 -180 80
-86 239 -69 263 28 3 13 -3 52 -14 87 -23 72 -35 158 -24 174 9 15 51 23 135
26 38 1 71 6 74 10 2 5 20 15 39 23 37 15 43 37 19 69 -16 21 -150 55 -219 55
l-38 1 7 48 c3 26 11 61 17 79 10 29 9 34 -13 52 -13 11 -32 20 -41 21 -9 0
-22 2 -30 4 -7 2 -40 0 -73 -4z"/>
<path d="M19070 17304 c-72 -11 -127 -26 -147 -42 -23 -17 -23 -19 -15 -166 8
-170 18 -153 -98 -179 -84 -19 -178 -61 -187 -83 -11 -29 7 -46 89 -84 21 -10
43 -9 117 4 50 10 95 14 100 11 5 -3 15 -20 21 -39 13 -41 110 -128 154 -138
28 -7 90 3 125 21 28 14 71 105 73 156 l3 50 95 6 c97 5 163 27 175 56 8 22
-5 61 -23 68 -10 4 -74 10 -143 13 -70 2 -132 8 -139 12 -11 7 -18 100 -20
252 0 56 -39 88 -105 87 -27 -1 -61 -3 -75 -5z"/>
<path d="M16130 17253 c-79 -15 -145 -46 -155 -72 -3 -8 -6 -70 -6 -138 0
-119 0 -123 -22 -127 -12 -2 -49 -9 -82 -15 -130 -23 -161 -32 -197 -56 -21
-14 -38 -32 -38 -40 0 -8 19 -27 41 -41 35 -22 62 -28 171 -39 71 -7 130 -14
132 -16 8 -8 46 -148 46 -168 0 -12 9 -29 20 -38 11 -10 20 -21 20 -25 0 -21
54 -66 86 -71 37 -6 121 25 137 51 5 7 17 21 29 31 17 17 22 39 30 148 5 70
15 134 20 141 6 6 29 12 51 12 67 0 159 30 194 64 18 17 33 35 33 39 0 4 -11
20 -25 34 l-24 27 -132 -12 c-73 -6 -135 -9 -138 -6 -3 3 -6 69 -7 147 -1 78
-2 144 -3 147 -2 12 -61 40 -83 39 -12 0 -57 -8 -98 -16z"/>
<path d="M13112 17238 c-69 -33 -73 -44 -85 -258 l-11 -190 -67 -20 c-93 -28
-151 -55 -177 -83 -26 -28 -22 -43 21 -77 28 -23 39 -25 136 -25 l106 -1 15
-41 c16 -43 75 -96 145 -129 37 -17 38 -17 55 3 9 11 31 28 48 37 42 22 72 82
72 145 0 48 1 50 45 74 24 14 60 31 80 37 52 17 123 100 86 100 -5 0 -11 8
-13 18 -3 18 -7 18 -83 4 -137 -25 -129 -28 -136 53 -4 39 -7 131 -8 206 -1
167 -3 169 -112 169 -54 -1 -86 -7 -117 -22z"/>
<path d="M3867 17232 c-20 -12 -26 -22 -22 -37 18 -62 17 -82 -6 -108 -23 -26
-30 -27 -169 -37 -80 -5 -176 -12 -215 -14 -38 -3 -122 -8 -185 -11 -63 -4
-205 -15 -315 -25 -110 -11 -231 -22 -270 -25 -134 -11 -291 -26 -465 -45
-269 -30 -591 -100 -630 -137 -13 -13 -12 -17 13 -39 22 -18 32 -22 46 -14 10
5 21 6 25 3 20 -20 56 -18 173 7 54 12 130 25 168 30 164 22 420 50 545 60
315 24 518 41 560 45 45 4 168 10 390 20 63 3 145 8 183 11 56 5 67 4 67 -9 0
-9 -4 -19 -10 -22 -19 -12 -10 -35 20 -50 77 -40 163 -6 316 123 43 36 53 51
64 96 7 30 10 65 6 80 -9 37 -52 73 -105 86 -25 6 -62 15 -82 21 -50 13 -70
11 -102 -9z m-417 -268 c0 -2 -15 -4 -32 -3 -27 0 -29 2 -13 8 18 8 45 4 45
-5z m47 10 c-3 -3 -12 -4 -19 -1 -8 3 -5 6 6 6 11 1 17 -2 13 -5z m-152 -15
c-39 -8 -92 -14 -225 -24 -36 -3 -76 -7 -90 -10 -14 -2 -54 -7 -90 -11 -36 -3
-68 -8 -71 -10 -3 -2 -69 -8 -145 -14 -76 -5 -177 -14 -224 -20 -47 -5 -152
-17 -235 -25 -82 -9 -204 -25 -269 -35 -76 -12 -125 -16 -136 -10 -10 5 -21 5
-26 0 -5 -5 -22 -11 -39 -14 -76 -13 -92 -16 -124 -26 -20 -5 -40 -6 -50 0
-13 7 -11 10 13 20 40 15 184 46 281 60 44 7 87 13 95 15 8 2 38 6 65 9 28 3
66 8 85 11 19 2 62 7 95 10 33 3 78 8 100 11 22 2 119 11 215 20 96 8 227 19
290 25 288 26 571 36 485 18z"/>
<path d="M10145 17127 c-57 -14 -114 -53 -126 -85 -7 -17 -9 -82 -6 -174 l5
-147 -32 -7 c-83 -18 -363 -159 -412 -208 -14 -15 -15 -21 -4 -41 14 -26 44
-41 107 -50 35 -6 51 -1 106 29 82 44 212 90 232 83 8 -4 15 -16 15 -27 0 -35
59 -253 76 -277 8 -13 21 -23 30 -23 8 0 17 -6 20 -14 8 -21 56 -38 89 -32 44
8 125 67 131 96 2 14 8 37 13 51 4 14 3 85 -4 160 -7 74 -11 137 -9 140 2 4
36 10 76 13 60 6 80 13 111 37 20 17 51 35 67 40 36 13 63 61 46 82 -21 28
-129 37 -267 22 l-56 -6 -12 103 c-7 57 -15 130 -18 163 -3 33 -10 66 -15 73
-13 15 -106 14 -163 -1z"/>
<path d="M7165 17024 c-22 -9 -57 -19 -78 -24 -21 -4 -44 -13 -50 -19 -6 -6
-21 -11 -32 -11 -12 0 -30 -9 -40 -20 -16 -17 -16 -25 -6 -63 7 -24 13 -113
14 -201 l2 -157 -140 -48 c-187 -63 -325 -144 -325 -191 0 -54 140 -90 204
-52 38 22 151 60 191 64 l30 3 6 -98 c8 -112 20 -134 81 -143 21 -4 41 -11 44
-15 7 -12 61 -11 69 0 3 5 19 12 35 16 17 4 53 29 80 55 l50 49 0 94 c0 126 3
128 167 147 68 7 101 16 127 34 19 12 55 29 80 36 27 7 48 20 51 30 3 10 17
26 31 35 20 13 23 19 13 31 -6 8 -18 14 -25 14 -8 0 -14 5 -14 10 0 15 -158
12 -275 -5 -55 -8 -107 -15 -116 -15 -14 0 -17 26 -22 198 -3 109 -9 206 -13
215 -6 17 -64 47 -88 47 -6 -1 -29 -8 -51 -16z"/>
<path d="M14401 16596 c-8 -10 -9 -16 -1 -21 13 -8 30 3 30 21 0 18 -14 18
-29 0z"/>
<path d="M3713 16452 c-23 -10 -45 -21 -49 -25 -4 -4 -15 -7 -24 -7 -26 0
-125 -47 -145 -70 -16 -18 -16 -20 4 -53 12 -20 21 -51 21 -75 0 -22 4 -51 9
-65 18 -46 -9 -57 -169 -77 -67 -8 -117 -24 -238 -77 -39 -17 -102 -78 -102
-98 0 -24 45 -46 117 -56 70 -10 111 -3 305 46 37 10 73 15 81 12 9 -3 19 -32
26 -74 23 -132 29 -142 89 -169 67 -30 68 -30 146 2 48 19 74 37 105 74 l41
48 4 113 c3 71 9 115 16 119 7 4 47 13 89 20 49 8 87 21 108 37 18 13 52 30
75 39 23 8 49 22 59 32 9 9 28 27 43 40 21 18 25 26 16 37 -16 19 -60 33 -95
30 -116 -11 -160 -17 -229 -30 -43 -8 -83 -15 -90 -15 -7 0 -19 40 -30 101
-21 119 -41 148 -101 154 -23 2 -57 -3 -82 -13z"/>
<path d="M958 16313 c-17 -7 -38 -13 -47 -13 -24 0 -93 -38 -117 -64 -18 -20
-19 -30 -13 -82 9 -74 11 -221 3 -251 -4 -13 -13 -23 -21 -23 -15 0 -67 -23
-248 -110 -113 -54 -162 -94 -143 -117 7 -9 21 -12 35 -8 16 4 22 1 21 -7 -6
-26 129 -14 227 20 49 18 95 32 101 32 18 0 32 -98 28 -200 -5 -133 0 -150 63
-171 47 -16 53 -16 100 1 66 23 93 42 133 92 43 53 59 99 60 173 0 33 3 97 6
142 8 90 10 93 93 107 19 3 49 17 67 31 18 14 35 25 38 25 22 0 87 38 92 54 4
11 13 26 20 34 23 23 16 41 -23 58 -36 15 -44 15 -143 -5 -58 -11 -115 -23
-127 -27 -31 -9 -39 16 -48 151 -9 138 -11 147 -32 163 -20 15 -84 12 -125 -5z"/>
<path d="M26420 16309 c-184 -4 -490 -15 -680 -24 -640 -30 -740 -35 -807 -39
-38 -3 -108 -8 -158 -11 -49 -3 -191 -12 -315 -20 -672 -43 -1041 -55 -1630
-54 -609 2 -704 8 -1380 88 -91 11 -237 25 -325 31 -160 11 -1009 16 -1088 6
-23 -3 -98 -8 -167 -11 -69 -3 -181 -10 -250 -16 -69 -5 -192 -14 -275 -19
-125 -8 -296 -23 -655 -55 -330 -29 -750 -30 -1025 0 -179 19 -351 19 -562 0
-182 -17 -251 -24 -588 -65 -417 -49 -638 -70 -910 -85 -60 -3 -144 -8 -185
-10 -541 -34 -1108 -63 -1385 -70 -215 -6 -556 -20 -725 -30 -47 -3 -263 -14
-480 -25 -383 -20 -689 -40 -915 -60 -123 -11 -404 -26 -630 -35 -82 -3 -346
-14 -585 -25 -239 -11 -561 -22 -715 -25 -154 -3 -334 -8 -400 -11 -123 -5
-171 -9 -615 -44 -267 -21 -579 -35 -965 -45 -216 -5 -301 -12 -600 -50 -66
-8 -223 -26 -350 -40 -301 -33 -379 -42 -505 -61 -108 -16 -120 -18 -330 -53
-295 -49 -444 -71 -585 -86 -82 -9 -157 -18 -165 -20 -34 -10 -440 -35 -655
-40 -203 -5 -451 -19 -540 -30 -16 -2 -61 -7 -100 -10 -38 -3 -115 -10 -170
-15 -98 -9 -355 -30 -625 -50 -689 -52 -811 -63 -1215 -110 -112 -13 -155 -18
-280 -30 -60 -6 -234 -26 -385 -45 -151 -19 -376 -45 -500 -60 -124 -14 -274
-32 -335 -40 -123 -17 -303 -38 -475 -54 -63 -7 -132 -14 -152 -17 l-38 -6 0
-124 0 -124 28 0 c25 0 240 26 407 49 67 9 215 28 390 51 44 5 105 12 135 16
30 3 159 19 285 35 127 17 325 41 440 55 116 13 246 29 290 34 209 27 514 60
640 70 136 10 311 24 675 56 333 28 406 35 610 55 314 30 440 39 760 49 435
14 883 60 1330 137 451 77 575 94 886 128 128 14 281 32 340 41 243 35 341 44
604 53 483 19 718 31 1025 56 511 42 559 44 960 55 215 5 426 12 470 15 44 3
139 7 210 10 72 3 155 7 185 10 30 3 181 10 335 15 363 13 564 25 920 55 329
27 504 39 895 60 151 8 390 21 530 29 140 8 345 17 455 20 388 12 647 25 1150
56 177 11 240 15 490 30 340 20 625 48 890 85 55 8 143 19 195 24 52 6 174 20
270 31 272 33 506 36 738 11 294 -32 693 -29 1132 9 63 5 194 16 290 25 96 8
270 22 385 30 116 8 262 19 325 25 185 15 296 19 625 25 458 9 834 -10 1240
-61 66 -8 136 -17 155 -19 329 -41 780 -52 1435 -35 480 12 593 16 880 35 121
8 258 17 305 20 47 3 155 9 240 15 251 17 833 49 1000 55 85 4 169 8 185 10
17 2 125 6 240 10 116 3 244 8 285 10 41 2 622 7 1290 11 1283 7 1274 7 1790
-40 91 -8 287 -22 435 -30 149 -9 389 -23 535 -31 261 -15 470 -37 705 -75 66
-11 244 -33 395 -50 151 -17 286 -32 300 -35 35 -7 897 -115 915 -115 12 0 15
17 15 85 0 47 -2 85 -3 85 -2 0 -89 11 -193 25 -246 33 -336 44 -409 51 -33 2
-103 11 -155 19 -52 8 -158 21 -235 30 -278 32 -392 47 -500 65 -334 57 -676
87 -1300 115 -153 7 -276 17 -555 47 -198 21 -247 22 -1370 22 -641 1 -1316
-2 -1500 -5z"/>
<path d="M24392 13658 c-7 -10 -4 -21 14 -41 33 -38 48 -25 23 18 -24 40 -23
39 -37 23z"/>
<path d="M27210 13399 c-60 -27 -80 -47 -80 -79 0 -30 52 -108 78 -117 9 -3
35 -14 57 -24 29 -13 80 -20 184 -26 95 -5 146 -12 148 -20 2 -6 -25 -43 -61
-81 -53 -56 -70 -68 -90 -65 -13 3 -27 0 -30 -6 -4 -6 -18 -11 -32 -11 -27 0
-64 -32 -64 -56 0 -9 25 -40 55 -70 63 -60 126 -88 223 -98 90 -10 93 -11 80
-49 -14 -41 -49 -96 -89 -142 -42 -47 -157 -115 -196 -115 -34 0 -63 -26 -63
-57 0 -21 29 -53 49 -53 6 0 39 -12 73 -26 51 -21 71 -25 112 -19 108 14 288
127 377 236 87 106 77 169 -44 289 -59 60 -91 83 -128 95 -27 9 -52 21 -55 27
-9 14 44 61 57 52 9 -5 32 13 80 61 20 20 69 115 69 134 0 12 -103 111 -133
128 -12 7 -37 12 -55 13 -18 0 -47 7 -64 16 -45 23 -111 42 -223 64 -126 25
-178 25 -235 -1z m430 -1079 c-24 -15 -95 -23 -132 -14 -30 8 -28 9 32 15 112
10 117 10 100 -1z"/>
<path d="M27055 13180 c-3 -5 -19 -10 -35 -10 -34 0 -65 -35 -80 -89 -14 -54
-14 -606 0 -664 17 -64 112 -160 203 -204 77 -38 93 -40 102 -14 6 20 -26 80
-62 116 -29 30 -25 266 6 324 8 14 9 21 2 17 -13 -8 -15 6 -2 20 13 13 45 336
37 376 -3 18 -14 40 -24 49 -9 8 -26 26 -37 40 -34 43 -94 64 -110 39z"/>
<path d="M10340 12743 c-69 -24 -79 -35 -125 -137 -24 -53 -51 -110 -59 -128
-9 -17 -16 -35 -16 -40 0 -4 -9 -27 -19 -51 -10 -23 -42 -103 -71 -177 -75
-194 -85 -212 -147 -244 -48 -24 -58 -50 -37 -94 13 -27 14 -39 5 -51 -6 -9
-26 -43 -43 -75 -46 -82 -49 -87 -85 -133 -18 -22 -33 -46 -33 -52 0 -26 -43
-103 -90 -162 -36 -45 -50 -71 -50 -94 0 -40 22 -70 44 -62 19 7 67 -11 79
-30 10 -16 29 -17 45 -1 13 13 79 38 103 38 25 0 91 79 118 140 30 68 53 118
93 195 17 33 34 73 39 89 8 28 8 28 -11 11 -11 -10 -20 -22 -20 -27 0 -8 -36
-87 -99 -218 -44 -91 -61 -118 -61 -100 0 9 4 20 8 25 5 6 17 30 26 55 10 25
33 77 51 115 18 39 42 90 52 115 52 129 63 143 143 182 67 33 200 81 207 74 1
-1 7 -45 12 -97 29 -271 64 -356 167 -405 46 -22 60 -24 80 -16 19 9 23 18 22
47 -1 20 -5 38 -10 41 -4 3 -5 -2 -2 -10 3 -9 2 -16 -2 -16 -20 1 -65 119 -78
205 -17 110 -28 277 -18 290 11 16 49 35 131 65 109 40 223 89 238 102 11 9
10 14 -6 29 -10 10 -21 24 -23 31 -7 19 -164 14 -305 -10 -51 -9 -51 -9 -57
19 -3 16 -8 64 -12 106 -3 43 -9 104 -13 135 -4 31 -4 63 0 70 4 8 3 49 -2 92
-6 44 -7 86 -4 93 10 29 -6 59 -39 71 -42 16 -71 14 -126 -5z m-20 -595 c0
-43 -2 -44 -58 -53 -44 -6 -50 0 -33 33 5 9 13 28 18 42 6 14 15 36 21 50 5
14 13 34 17 45 6 16 10 10 21 -30 8 -27 14 -67 14 -87z m539 -42 c-10 -10
-153 -66 -167 -66 -29 0 1 17 73 43 64 23 105 33 94 23z"/>
<path d="M10250 12124 c0 -8 5 -12 10 -9 6 3 10 10 10 16 0 5 -4 9 -10 9 -5 0
-10 -7 -10 -16z"/>
<path d="M26440 12092 c-24 -2 -50 -8 -57 -14 -19 -15 -16 -52 6 -72 19 -17
19 -18 0 -59 -25 -56 -24 -60 12 -101 95 -109 240 -127 321 -40 42 45 50 76
33 130 -16 55 -40 84 -70 84 -12 0 -33 11 -47 25 -42 42 -93 54 -198 47z m115
-292 c3 -5 1 -10 -4 -10 -6 0 -11 5 -11 10 0 6 2 10 4 10 3 0 8 -4 11 -10z"/>
<path d="M10350 11868 c0 -54 23 -254 31 -262 7 -8 4 128 -7 232 -5 50 -24 74
-24 30z"/>
<path d="M10116 11778 c-14 -20 -24 -69 -11 -57 8 8 36 79 31 79 -3 0 -12 -10
-20 -22z"/>
<path d="M5693 11753 c-18 -7 -16 -23 2 -23 8 0 15 7 15 15 0 8 -1 15 -2 14
-2 0 -9 -3 -15 -6z"/>
<path d="M11255 11667 c-42 -14 -71 -38 -143 -118 -52 -59 -61 -73 -52 -89 15
-28 63 -50 123 -57 41 -4 57 -11 77 -34 22 -25 36 -30 108 -40 77 -10 84 -10
98 7 37 48 46 79 48 163 l1 86 -56 5 c-62 6 -91 23 -81 48 5 15 4 15 -12 0
-23 -23 -25 -23 -35 6 -11 28 -36 36 -76 23z m210 -296 c-3 -6 -11 -8 -17 -5
-6 4 -5 9 3 15 16 10 23 4 14 -10z"/>
<path d="M10535 11140 c-3 -5 -2 -10 4 -10 5 0 13 5 16 10 3 6 2 10 -4 10 -5
0 -13 -4 -16 -10z"/>
<path d="M10760 11049 c0 -16 31 -38 54 -39 18 0 18 2 -4 25 -25 26 -50 33
-50 14z"/>
<path d="M6031 10862 c-32 -26 -32 -28 -15 -42 16 -13 17 -13 11 2 -7 19 26
48 55 48 9 0 20 5 23 10 14 22 -43 8 -74 -18z"/>
<path d="M11570 10490 c-96 -6 -129 -13 -195 -40 -70 -29 -261 -147 -320 -198
-31 -26 -82 -107 -127 -201 l-40 -85 5 -130 c4 -107 9 -141 28 -186 54 -130
121 -196 237 -234 44 -15 93 -26 109 -24 26 3 28 0 29 -33 1 -37 25 -79 72
-131 14 -16 21 -31 17 -39 -5 -7 -4 -10 2 -6 6 4 26 1 45 -7 18 -8 65 -17 103
-21 65 -6 74 -5 120 21 112 64 337 313 451 500 50 82 130 254 151 324 24 79
29 167 13 218 -34 106 -264 253 -420 268 -106 10 -177 11 -280 4z m309 -185
c49 -24 78 -61 62 -78 -4 -4 -3 -37 3 -73 7 -48 6 -82 -3 -127 -17 -80 -26
-97 -57 -97 -14 0 -39 -7 -55 -16 -31 -16 -65 -12 -54 6 3 5 -1 10 -10 10 -8
0 -18 7 -21 15 -4 8 -13 15 -21 15 -8 0 -33 10 -56 23 -23 12 -43 22 -44 22
-1 0 -5 30 -9 65 -7 75 -18 100 -42 101 -9 0 -39 11 -67 23 l-50 23 -57 -28
c-57 -29 -70 -47 -58 -84 12 -38 0 -133 -18 -141 -10 -4 -59 -8 -109 -9 -73
-2 -93 1 -93 11 0 8 4 14 9 14 5 0 14 15 22 33 14 35 55 98 91 138 43 48 160
119 233 140 38 11 84 27 100 35 23 12 55 14 141 10 95 -4 119 -8 163 -31z
m-210 -544 c21 -21 55 -44 75 -51 20 -6 36 -16 36 -21 0 -33 -273 -359 -301
-359 -4 0 -19 24 -33 53 -23 50 -88 116 -126 129 -8 3 -27 -1 -41 -10 -25 -14
-29 -13 -60 9 -19 12 -44 35 -57 49 -33 36 -82 135 -82 165 0 25 15 35 22 14
2 -6 31 -13 63 -14 33 -2 68 -6 78 -10 9 -4 37 -4 61 -1 48 7 56 0 56 -53 0
-35 9 -44 28 -29 11 10 17 8 28 -7 8 -10 14 -31 14 -45 0 -14 14 -45 32 -69
31 -43 32 -43 81 -37 28 3 55 10 60 15 6 6 12 78 15 161 3 82 6 150 8 150 2 0
21 -17 43 -39z m-154 -537 c23 -24 93 -29 138 -11 49 21 47 13 -3 -13 -64 -33
-111 -26 -149 23 -17 22 -8 22 14 1z"/>
<path d="M14616 10492 c-3 -5 -19 -7 -36 -4 -16 2 -46 -3 -65 -12 -31 -15 -34
-20 -29 -44 4 -15 14 -33 23 -39 9 -7 28 -24 44 -38 15 -14 32 -25 37 -25 19
0 62 -78 58 -107 -3 -28 -3 -28 -68 -26 -661 24 -1224 27 -1535 7 -55 -4 -132
-7 -172 -8 -43 -1 -77 -6 -84 -13 -9 -9 -53 -13 -146 -13 -117 0 -140 -3 -199
-25 -37 -14 -74 -31 -81 -37 -20 -16 -7 -85 24 -126 22 -30 155 -107 165 -97
3 3 34 7 69 10 35 3 98 9 139 15 41 6 109 9 150 8 41 -1 174 7 295 19 389 39
545 46 800 39 297 -8 403 -14 480 -27 82 -14 265 -39 273 -38 21 3 32 -3 32
-19 0 -10 15 -35 34 -55 33 -37 36 -38 93 -34 56 4 59 6 96 53 56 71 105 178
117 258 6 38 13 73 16 77 7 12 -24 69 -37 69 -6 0 -29 21 -52 46 -47 51 -88
66 -195 69 -57 1 -66 5 -100 37 -44 42 -112 88 -129 88 -6 0 -14 -4 -17 -8z
m159 -154 c21 -10 36 -38 20 -38 -17 0 -65 32 -60 40 8 12 9 12 40 -2z"/>
<path d="M17570 9405 c0 -8 5 -15 10 -15 6 0 10 7 10 15 0 8 -4 15 -10 15 -5
0 -10 -7 -10 -15z"/>
<path d="M14685 9180 c-3 -5 -1 -10 4 -10 6 0 11 5 11 10 0 6 -2 10 -4 10 -3
0 -8 -4 -11 -10z"/>
<path d="M13608 9072 c-9 -9 -42 -37 -72 -62 -31 -24 -56 -49 -56 -55 0 -6 23
-17 51 -24 28 -8 65 -26 82 -41 l31 -28 -19 -43 c-18 -41 -108 -191 -161 -269
-75 -111 -94 -129 -94 -92 0 31 -39 153 -71 220 -31 66 -100 149 -134 162 -35
13 -71 -8 -99 -59 -14 -27 -26 -57 -26 -68 0 -11 17 -44 38 -74 64 -92 82
-145 113 -329 22 -130 37 -150 115 -150 34 0 61 25 140 130 72 96 185 265 199
300 4 8 13 31 22 51 8 20 26 48 39 63 14 14 22 31 19 36 -3 6 1 10 9 10 9 0
16 8 16 18 0 29 40 86 52 74 15 -15 -65 -171 -162 -317 -30 -44 -57 -81 -62
-83 -4 -2 -8 -8 -8 -13 0 -16 -100 -152 -148 -201 -27 -28 -40 -48 -32 -48 35
0 111 95 275 345 103 157 145 233 165 300 6 22 15 52 20 67 4 15 6 38 3 50
-19 78 -200 174 -245 130z m43 -348 c-24 -47 -83 -144 -132 -217 -104 -155
-126 -184 -133 -176 -3 3 26 55 66 115 92 141 128 200 179 302 30 60 45 80 53
72 8 -8 -1 -34 -33 -96z"/>
<path d="M21756 8281 c-3 -5 1 -11 9 -15 8 -3 15 -1 15 4 0 13 -18 22 -24 11z"/>
<path d="M18402 7894 c1 -9 9 -19 16 -22 9 -3 13 2 10 14 -1 9 -9 19 -16 22
-9 3 -13 -2 -10 -14z"/>
<path d="M10320 7851 c-209 -55 -421 -240 -539 -471 -135 -262 -114 -633 44
-818 49 -56 102 -82 200 -98 143 -24 215 -11 215 37 0 23 -29 36 -102 45 -108
14 -204 75 -255 161 -24 41 -26 53 -25 153 2 158 23 238 97 356 123 199 204
282 340 349 118 58 199 74 345 69 63 -3 124 -5 135 -5 32 0 106 -30 163 -67
138 -90 224 -266 224 -457 0 -104 -19 -205 -38 -205 -7 0 -33 10 -56 23 -61
31 -167 30 -265 -4 -40 -14 -73 -22 -73 -17 0 5 11 30 24 56 19 38 23 64 24
133 1 85 1 86 -30 109 -87 64 -277 65 -462 1 -82 -29 -86 -34 -86 -103 0 -56
2 -61 45 -107 53 -56 117 -87 136 -65 11 13 79 21 79 9 0 -6 -42 -67 -51 -75
-15 -13 -39 -72 -39 -97 0 -15 15 -55 33 -88 58 -108 160 -142 271 -89 31 14
56 34 59 45 3 10 12 19 20 19 9 0 53 23 98 50 45 28 89 50 98 50 9 0 31 9 49
20 18 11 39 20 46 20 7 0 19 7 26 15 16 19 30 19 30 0 0 -25 -97 -203 -140
-258 -23 -29 -64 -75 -91 -104 -28 -29 -48 -57 -44 -62 3 -7 0 -8 -9 -5 -9 3
-28 -4 -43 -16 -18 -14 -35 -19 -51 -15 -19 5 -23 3 -19 -9 5 -11 -3 -17 -29
-22 -47 -9 -76 13 -132 97 -23 35 -54 78 -67 94 -38 46 -95 135 -95 149 0 7
-11 19 -25 26 -22 12 -28 12 -42 -3 -15 -15 -14 -21 15 -80 18 -36 32 -68 32
-73 0 -5 15 -39 34 -75 84 -163 180 -271 253 -285 49 -9 133 9 197 42 28 15
53 30 56 33 3 4 18 17 34 29 41 32 128 133 180 211 128 191 205 442 192 624
-10 151 -80 331 -180 467 -40 53 -143 155 -174 171 -15 8 -29 16 -32 19 -18
18 -122 57 -240 89 -95 27 -264 27 -360 2z"/>
<path d="M22270 6870 c0 -19 3 -21 12 -12 9 9 9 15 0 24 -9 9 -12 7 -12 -12z"/>
<path d="M20426 6771 c-3 -5 1 -11 9 -15 8 -3 15 -1 15 4 0 13 -18 22 -24 11z"/>
<path d="M1386 6709 c-113 -38 -203 -87 -286 -156 -71 -60 -190 -191 -190
-210 0 -7 -4 -13 -10 -13 -13 0 -87 -155 -101 -212 -24 -101 1 -327 49 -426
34 -72 142 -161 210 -173 26 -5 55 -12 64 -15 12 -4 15 0 11 14 -4 17 0 19 24
15 21 -3 24 -2 14 5 -21 15 -23 48 -5 67 27 27 3 60 -69 95 -81 39 -121 69
-125 95 -2 11 -11 28 -19 37 -13 15 -13 20 1 50 8 18 21 49 29 69 42 103 281
349 340 349 13 0 3 -154 -18 -275 -9 -55 -17 -149 -17 -210 0 -103 2 -114 31
-172 36 -71 36 -76 16 -93 -13 -11 -23 -10 -56 0 -24 8 -43 10 -49 4 -10 -10
7 -114 21 -129 5 -5 9 -15 9 -23 0 -8 20 -35 45 -59 53 -51 70 -51 147 1 46
30 65 55 33 42 -8 -3 -15 0 -15 5 0 6 9 9 19 6 10 -2 25 -1 32 4 11 7 10 9 -5
9 -15 0 -8 11 30 53 27 28 65 71 84 95 19 23 39 41 45 38 16 -6 23 1 71 59 41
50 73 97 96 145 7 14 23 43 37 65 13 22 40 87 58 145 34 104 34 107 28 230 -4
69 -13 154 -22 190 -17 74 -43 140 -55 140 -4 0 -8 6 -8 13 0 16 -82 97 -98
97 -7 0 -12 4 -12 8 0 5 -28 18 -62 30 -95 33 -207 30 -322 -9z m352 -318 c10
-5 37 -25 59 -44 36 -30 40 -37 36 -71 -2 -22 -13 -64 -24 -95 -12 -31 -23
-64 -26 -73 -3 -10 -9 -18 -14 -18 -5 0 -9 -8 -9 -17 0 -10 -6 -29 -13 -43
-30 -55 -60 -105 -66 -110 -3 -3 -12 -15 -18 -27 -7 -13 -19 -33 -25 -45 -38
-69 -173 -226 -185 -215 -11 12 -5 177 7 177 4 0 7 15 7 33 1 17 4 96 8 174 7
121 5 147 -9 176 -8 19 -18 51 -21 72 -5 43 -22 68 -42 61 -7 -3 -13 -2 -13 3
0 17 33 35 108 58 81 24 198 27 240 4z m-278 -1021 c0 -5 -7 -10 -16 -10 -8 0
-12 5 -9 10 3 6 10 10 16 10 5 0 9 -4 9 -10z m-90 -50 c0 -5 -4 -10 -9 -10 -6
0 -13 5 -16 10 -3 6 1 10 9 10 9 0 16 -4 16 -10z"/>
<path d="M11670 6721 c-206 -63 -421 -417 -393 -648 8 -73 70 -192 129 -250
41 -41 107 -83 130 -83 16 0 24 -46 31 -185 l6 -120 -56 3 c-62 4 -75 -3 -203
-115 -32 -28 -95 -80 -139 -115 -43 -34 -90 -78 -102 -97 -35 -52 -28 -149 11
-164 9 -4 32 1 52 10 34 17 36 17 45 0 10 -16 12 -16 36 3 14 11 31 20 37 20
14 0 121 77 207 149 34 28 67 50 73 48 6 -2 14 -19 18 -38 7 -30 2 -76 -28
-265 -3 -23 -11 -34 -29 -38 -36 -9 -56 -43 -216 -365 -155 -310 -153 -303
-112 -348 6 -7 15 -22 18 -33 3 -11 18 -23 31 -26 20 -5 29 -1 42 17 9 13 33
42 52 64 20 22 53 69 74 105 21 36 41 72 46 80 54 92 78 135 106 191 23 45 45
73 71 90 33 21 39 30 44 74 4 28 11 61 16 75 6 14 8 42 6 62 -6 47 24 198 43
219 10 11 39 19 82 23 37 4 117 14 177 22 106 15 323 14 456 -2 l46 -6 6 39
c4 21 9 49 13 63 8 35 -61 102 -130 128 -164 62 -236 74 -453 75 l-172 2 -4
80 c-3 44 -5 98 -5 121 -1 22 -8 67 -17 99 -8 33 -15 62 -15 66 0 4 23 14 51
23 146 48 282 130 376 227 101 104 128 153 119 213 -4 22 -10 71 -14 107 -6
53 -14 77 -42 115 -81 115 -172 203 -242 237 -99 48 -213 67 -278 48z m248
-274 c61 -15 162 -89 162 -119 0 -19 -15 -42 -73 -113 -31 -37 -158 -135 -176
-135 -6 0 -11 -4 -11 -8 0 -5 -49 -32 -108 -60 -104 -50 -206 -81 -220 -67 -8
7 19 26 29 19 4 -2 12 3 19 11 10 12 8 21 -8 47 -27 44 -27 120 0 178 41 85
138 200 170 200 6 0 20 8 31 18 18 16 84 39 117 41 8 0 39 -5 68 -12z"/>
<path d="M16204 6606 c-8 -22 3 -33 18 -18 9 9 9 15 0 24 -9 9 -13 7 -18 -6z"/>
<path d="M29131 6224 c0 -11 3 -14 6 -6 3 7 2 16 -1 19 -3 4 -6 -2 -5 -13z"/>
<path d="M15210 6140 c0 -7 11 -36 24 -64 27 -58 58 -185 49 -199 -4 -6 -64
-7 -162 -3 -233 11 -405 9 -926 -9 -334 -12 -405 -16 -510 -26 -127 -13 -299
-45 -468 -89 -65 -16 -119 -30 -121 -30 -14 0 -27 -66 -21 -107 5 -39 16 -59
56 -102 l49 -54 87 7 c47 3 91 10 97 15 6 5 36 14 66 21 30 7 73 16 95 21 22
5 76 16 120 24 44 8 100 20 125 25 25 6 92 15 150 20 58 5 152 16 210 24 116
17 356 33 523 35 60 1 120 7 135 14 18 8 101 11 260 10 258 -1 269 -4 257 -57
-4 -17 -9 -43 -11 -58 -2 -16 -8 -57 -14 -93 -11 -70 -6 -110 18 -137 35 -41
85 -9 138 87 62 114 63 117 75 260 8 99 17 153 31 183 l20 42 -27 35 c-14 19
-33 35 -41 35 -7 0 -14 5 -14 10 0 6 -11 10 -24 10 -18 0 -34 13 -57 45 -45
63 -189 142 -189 105z"/>
<path d="M28772 6044 c1 -9 9 -19 16 -22 9 -3 13 2 10 14 -1 9 -9 19 -16 22
-9 3 -13 -2 -10 -14z"/>
<path d="M14787 5966 c-6 -15 1 -26 15 -26 11 0 10 27 -1 34 -5 3 -11 0 -14
-8z"/>
<path d="M2745 5811 c-98 -25 -216 -87 -315 -165 -54 -43 -202 -203 -221 -238
-10 -20 -27 -41 -36 -47 -10 -5 -17 -13 -17 -18 2 -10 -18 -56 -27 -63 -4 -3
-18 -39 -32 -80 -19 -59 -25 -99 -26 -187 -2 -128 6 -155 68 -224 39 -45 42
-47 78 -39 21 4 49 7 63 7 18 -2 25 3 24 16 -1 12 6 17 25 17 35 0 51 17 51
52 0 34 -34 58 -86 63 -21 2 -41 10 -45 17 -7 11 -9 11 -9 0 0 -7 -4 -10 -10
-7 -49 30 74 268 208 401 113 113 278 211 390 234 75 15 155 2 213 -37 52 -34
64 -62 49 -109 -43 -130 -222 -339 -390 -458 -79 -55 -116 -71 -126 -54 -4 6
-21 8 -40 5 -30 -5 -36 -2 -71 44 -41 54 -52 58 -78 29 -16 -18 -17 -22 -1
-54 9 -19 16 -40 16 -48 0 -8 11 -37 25 -64 14 -27 25 -55 25 -61 0 -7 4 -13
9 -13 5 0 11 -6 14 -13 5 -13 -14 -313 -22 -348 0 -3 -42 -3 -92 -1 -91 5
-143 -4 -204 -35 -40 -21 -159 -96 -165 -105 -3 -4 -44 -34 -90 -67 -47 -33
-103 -73 -125 -89 -52 -39 -131 -77 -174 -86 -75 -14 -74 -49 5 -105 59 -43
72 -43 162 -6 33 14 45 15 57 5 8 -6 23 -9 34 -5 11 3 29 8 42 10 12 2 29 11
38 19 9 9 32 22 51 31 46 20 89 47 195 122 63 45 100 64 131 69 27 4 43 11 41
18 -4 12 50 56 70 56 9 0 12 -8 9 -22 -3 -13 -8 -75 -11 -138 -3 -63 -10 -131
-14 -151 -4 -19 -7 -82 -5 -140 4 -137 4 -139 14 -139 4 0 11 -11 14 -25 6
-24 42 -65 57 -65 20 0 59 50 61 78 2 29 4 30 21 19 11 -7 25 -28 31 -46 21
-62 227 -274 304 -312 26 -13 54 -29 62 -35 44 -31 177 -78 224 -79 46 0 51 2
60 28 10 26 6 32 -50 85 -34 31 -72 65 -85 74 -13 10 -60 44 -104 76 -113 82
-191 161 -221 225 -10 20 -21 37 -26 37 -4 0 -8 7 -8 15 0 8 -4 15 -9 15 -5 0
-12 8 -15 18 -5 15 -47 60 -110 119 -10 9 -27 18 -37 18 -11 1 -22 5 -26 8 -3
4 -1 51 6 105 7 53 15 122 18 152 3 30 7 57 9 59 2 2 23 -5 46 -17 138 -68
382 -126 573 -135 29 -1 53 6 88 27 40 25 47 34 47 61 0 45 -33 73 -165 138
-106 53 -127 61 -300 117 -158 51 -205 76 -205 111 0 10 -11 31 -25 47 -17 21
-25 42 -25 69 0 33 4 41 28 50 25 10 25 11 5 12 -28 1 -30 17 -4 26 49 15 199
125 278 203 21 21 40 31 49 28 10 -4 14 -1 12 6 -3 7 8 23 24 36 31 26 106
136 149 217 35 67 63 225 57 324 -7 107 -50 194 -119 236 -9 5 -45 28 -80 49
-58 36 -72 40 -139 43 -48 1 -100 -4 -145 -16z"/>
<path d="M29432 5374 c9 -9 21 -13 28 -9 14 9 -5 25 -30 25 -12 0 -12 -3 2
-16z"/>
<path d="M29505 5280 c3 -5 8 -10 11 -10 2 0 4 5 4 10 0 6 -5 10 -11 10 -5 0
-7 -4 -4 -10z"/>
<path d="M14661 4940 c-12 -7 -13 -13 -3 -35 7 -14 12 -43 12 -65 0 -21 5 -42
10 -45 6 -3 10 -14 10 -23 0 -33 -90 -225 -134 -286 -50 -69 -151 -176 -190
-201 -47 -31 -48 -28 -106 195 -47 181 -109 262 -213 275 -63 8 -61 12 -71
-90 -4 -43 0 -58 24 -100 16 -28 36 -66 45 -85 8 -19 20 -43 25 -52 6 -10 10
-26 10 -37 0 -10 9 -50 21 -87 50 -169 95 -250 183 -333 54 -51 59 -53 97 -47
44 7 150 75 189 121 14 16 36 38 48 50 13 11 30 36 38 55 8 19 18 37 23 40 19
12 93 132 136 220 25 52 57 106 71 121 13 14 24 32 24 40 0 9 9 24 20 34 24
22 25 50 5 89 -8 15 -15 46 -15 68 0 93 -62 142 -230 184 -8 2 -21 -1 -29 -6z"/>
<path d="M11697 4722 c-20 -22 -21 -46 -6 -93 21 -65 33 -80 93 -110 34 -16
110 -61 169 -99 60 -39 111 -70 114 -70 6 0 116 -72 123 -81 3 -3 29 -21 58
-39 62 -38 93 -35 112 9 10 26 9 35 -16 78 -43 73 -114 139 -231 214 -18 12
-33 25 -33 30 0 5 -5 9 -11 9 -6 0 -45 25 -85 55 -144 109 -246 143 -287 97z"/>
<path d="M2735 4700 c-3 -6 1 -7 9 -4 18 7 21 14 7 14 -6 0 -13 -4 -16 -10z"/>
<path d="M13655 4530 c-3 -5 -1 -10 4 -10 6 0 11 5 11 10 0 6 -2 10 -4 10 -3
0 -8 -4 -11 -10z"/>
<path d="M13372 4228 c-16 -16 -15 -28 3 -28 8 0 15 9 15 20 0 23 -2 24 -18 8z"/>
<path d="M20376 4001 c-4 -7 -5 -15 -2 -18 9 -9 19 4 14 18 -4 11 -6 11 -12 0z"/>
<path d="M22645 3880 c-3 -5 1 -10 9 -10 9 0 16 5 16 10 0 6 -4 10 -9 10 -6 0
-13 -4 -16 -10z"/>
<path d="M2119 3753 c-26 -27 -156 -237 -185 -298 -8 -16 -30 -59 -50 -95 -20
-36 -49 -92 -66 -125 -17 -33 -34 -62 -37 -65 -3 -3 -17 -24 -29 -48 l-24 -43
22 -62 c29 -81 38 -93 80 -100 34 -7 37 -5 67 42 18 26 53 88 78 136 26 48 51
92 56 99 5 6 57 91 114 188 79 132 105 185 105 211 0 19 7 51 15 70 21 50 20
54 -23 82 -60 39 -92 42 -123 8z"/>
<path d="M7412 3228 c-17 -17 -15 -28 7 -28 19 0 35 23 24 34 -9 9 -18 7 -31
-6z"/>
<path d="M13827 3182 c-10 -10 -17 -27 -17 -38 1 -16 5 -14 25 11 14 17 25 33
25 38 0 13 -16 7 -33 -11z"/>
<path d="M31612 2419 c2 -6 8 -10 13 -10 5 0 11 4 13 10 2 6 -4 11 -13 11 -9
0 -15 -5 -13 -11z"/>
<path d="M7210 2336 c0 -8 4 -17 8 -20 13 -8 35 11 28 23 -10 16 -36 14 -36
-3z"/>
<path d="M30847 1944 c-14 -14 -8 -64 8 -64 16 0 18 23 6 53 -3 10 -10 15 -14
11z"/>
<path d="M17867 1806 c-4 -10 -1 -19 9 -23 21 -8 26 1 11 22 -13 16 -14 16
-20 1z"/>
<path d="M27203 1738 c2 -7 10 -13 17 -13 7 0 15 6 18 13 2 7 -5 12 -18 12
-13 0 -20 -5 -17 -12z"/>
<path d="M22360 1234 c0 -14 4 -23 10 -19 6 3 10 15 10 26 0 10 -4 19 -10 19
-5 0 -10 -12 -10 -26z"/>
<path d="M7810 690 c0 -5 5 -10 10 -10 6 0 10 5 10 10 0 6 -4 10 -10 10 -5 0
-10 -4 -10 -10z"/>
<path d="M430 15 c0 -9 9 -15 25 -15 28 0 34 15 9 24 -25 10 -34 7 -34 -9z"/>
</g>
</svg>
